<svg width="64" height="64" viewBox="0 0 64 64" fill="none" xmlns="http://www.w3.org/2000/svg">
<path d="M31.8747 5.33325C17.24 5.33325 5.33337 17.2959 5.33337 31.9999C5.33337 46.7039 17.296 58.6666 32 58.6666C46.704 58.6666 58.6667 46.7039 58.6667 31.9999C58.6667 17.2959 46.648 5.33325 31.8747 5.33325ZM32 53.3333C20.2374 53.3333 10.6667 43.7626 10.6667 31.9999C10.6667 20.2373 20.1787 10.6666 31.8747 10.6666C43.7094 10.6666 53.3334 20.2373 53.3334 31.9999C53.3334 43.7626 43.7627 53.3333 32 53.3333Z" fill="black"/>
<path d="M29.3334 18.6667H34.6667V37.3334H29.3334V18.6667ZM29.3334 40.0001H34.6667V45.3334H29.3334V40.0001Z" fill="black"/>
</svg>
