<svg width="36" height="37" viewBox="0 0 36 37" fill="none" xmlns="http://www.w3.org/2000/svg">
<path d="M16.5015 15.5H19.5015V23H16.5015V15.5ZM16.5 24.5H19.5V27.5H16.5V24.5Z" fill="#121212"/>
<path d="M20.652 6.80003C20.13 5.81753 19.113 5.20703 18 5.20703C16.887 5.20703 15.87 5.81753 15.348 6.80153L4.34105 27.596C4.0968 28.0527 3.97581 28.5651 3.99001 29.0828C4.00422 29.6004 4.15312 30.1055 4.42205 30.548C4.68709 30.9926 5.06351 31.3604 5.51412 31.615C5.96473 31.8696 6.47397 32.0023 6.99155 32H29.0085C30.0705 32 31.032 31.457 31.5795 30.548C31.848 30.1053 31.9967 29.6003 32.0109 29.0828C32.0251 28.5652 31.9044 28.0528 31.6605 27.596L20.652 6.80003ZM6.99155 29L18 8.20553L29.016 29H6.99155Z" fill="#121212"/>
</svg>
