<svg width="64" height="64" viewBox="0 0 64 64" fill="none" xmlns="http://www.w3.org/2000/svg">
<path d="M29.336 26.6667H34.6694V40.0001H29.336V26.6667ZM29.3334 42.6667H34.6667V48.0001H29.3334V42.6667Z" fill="black"/>
<path d="M36.7147 11.1999C35.7867 9.45325 33.9787 8.36792 32 8.36792C30.0214 8.36792 28.2134 9.45325 27.2854 11.2026L7.71736 48.1706C7.28314 48.9824 7.06805 49.8934 7.0933 50.8137C7.11855 51.734 7.38328 52.6318 7.86136 53.4186C8.33256 54.2089 9.00173 54.8627 9.80282 55.3154C10.6039 55.7681 11.5092 56.004 12.4294 55.9999H51.5707C53.4587 55.9999 55.168 55.0346 56.1414 53.4186C56.6187 52.6315 56.883 51.7338 56.9082 50.8136C56.9335 49.8935 56.7188 48.9826 56.2854 48.1706L36.7147 11.1999ZM12.4294 50.6666L32 13.6986L51.584 50.6666H12.4294Z" fill="black"/>
</svg>
