<svg width="38" height="38" viewBox="0 0 38 38" fill="none" xmlns="http://www.w3.org/2000/svg">
<path d="M34.8333 14.25V11.0833H31.6666V7.91667C31.6666 7.07681 31.333 6.27136 30.7391 5.6775C30.1453 5.08363 29.3398 4.75 28.5 4.75H6.33329C5.49344 4.75 4.68799 5.08363 4.09412 5.6775C3.50026 6.27136 3.16663 7.07681 3.16663 7.91667V30.0833C3.16663 30.9232 3.50026 31.7286 4.09412 32.3225C4.68799 32.9164 5.49344 33.25 6.33329 33.25H28.5C29.3398 33.25 30.1453 32.9164 30.7391 32.3225C31.333 31.7286 31.6666 30.9232 31.6666 30.0833V26.9167H34.8333V23.75H31.6666V20.5833H34.8333V17.4167H31.6666V14.25H34.8333ZM28.5 30.0833H6.33329V7.91667H28.5V30.0833ZM9.49996 20.5833H17.4166V26.9167H9.49996V20.5833ZM19 11.0833H25.3333V15.8333H19V11.0833ZM9.49996 11.0833H17.4166V19H9.49996V11.0833ZM19 17.4167H25.3333V26.9167H19V17.4167Z" fill="#1F1F1F"/>
</svg>
