<svg width="36" height="36" viewBox="0 0 36 36" fill="none" xmlns="http://www.w3.org/2000/svg">
<path d="M32.9999 30.885L30.8849 33L26.1749 28.29C25.3349 28.845 24.4499 29.34 23.4899 29.67C20.9999 30.54 18.2999 30.6 15.7949 29.82C14.2499 29.37 12.8399 28.575 11.6249 27.555L6.83995 32.34C5.99995 33.225 4.54495 33.225 3.65995 32.34C2.78995 31.5 2.78995 30 3.65995 29.16L8.72995 24.09L12.7049 23.31C13.7849 24.675 15.2849 25.695 16.9199 26.25C18.6599 26.775 20.5799 26.76 22.3049 26.19C22.7399 26.055 23.1599 25.89 23.5499 25.68L11.3999 13.5L8.74495 16.17L4.49995 11.925L11.9249 4.5L18.2849 6.615L13.4999 11.4L25.9649 23.835C26.2499 23.565 26.4749 23.295 26.6999 22.995C28.9499 20.04 29.1299 15.63 27.1349 12C25.1699 8.355 21.7499 5.325 17.9999 3C20.1149 3.75 22.1399 4.755 23.9999 6.06C25.8599 7.365 27.6449 8.895 28.9949 10.875C30.3449 12.81 31.3049 15.18 31.4999 17.685C31.6499 20.205 30.9899 22.845 29.5499 24.975C29.2499 25.5 28.8599 25.92 28.4999 26.34L32.9999 30.885Z" fill="#121212"/>
</svg>
