<svg width="20" height="20" viewBox="0 0 20 20" fill="none" xmlns="http://www.w3.org/2000/svg">
<path d="M7.25842 6.42495L9.16675 4.50829V12.5C9.16675 12.721 9.25455 12.9329 9.41083 13.0892C9.56711 13.2455 9.77907 13.3333 10.0001 13.3333C10.2211 13.3333 10.4331 13.2455 10.5893 13.0892C10.7456 12.9329 10.8334 12.721 10.8334 12.5V4.50829L12.7417 6.42495C12.8192 6.50306 12.9114 6.56506 13.0129 6.60736C13.1145 6.64967 13.2234 6.67145 13.3334 6.67145C13.4434 6.67145 13.5523 6.64967 13.6539 6.60736C13.7554 6.56506 13.8476 6.50306 13.9251 6.42495C14.0032 6.34749 14.0652 6.25532 14.1075 6.15377C14.1498 6.05222 14.1716 5.9433 14.1716 5.83329C14.1716 5.72328 14.1498 5.61436 14.1075 5.51281C14.0652 5.41126 14.0032 5.31909 13.9251 5.24162L10.5917 1.90829C10.5125 1.83242 10.419 1.77295 10.3167 1.73329C10.1139 1.64994 9.8863 1.64994 9.68342 1.73329C9.58112 1.77295 9.48767 1.83242 9.40841 1.90829L6.07508 5.24162C5.99738 5.31932 5.93575 5.41156 5.8937 5.51308C5.85165 5.6146 5.83001 5.7234 5.83001 5.83329C5.83001 5.94317 5.85165 6.05198 5.8937 6.1535C5.93575 6.25501 5.99738 6.34726 6.07508 6.42495C6.15278 6.50265 6.24502 6.56429 6.34654 6.60634C6.44806 6.64839 6.55687 6.67003 6.66675 6.67003C6.77663 6.67003 6.88544 6.64839 6.98696 6.60634C7.08847 6.56429 7.18072 6.50265 7.25842 6.42495ZM17.5001 9.99995C17.2791 9.99995 17.0671 10.0878 16.9108 10.244C16.7545 10.4003 16.6667 10.6123 16.6667 10.8333V15.8333C16.6667 16.0543 16.579 16.2663 16.4227 16.4225C16.2664 16.5788 16.0544 16.6666 15.8334 16.6666H4.16675C3.94573 16.6666 3.73377 16.5788 3.57749 16.4225C3.42121 16.2663 3.33341 16.0543 3.33341 15.8333V10.8333C3.33341 10.6123 3.24562 10.4003 3.08934 10.244C2.93306 10.0878 2.7211 9.99995 2.50008 9.99995C2.27907 9.99995 2.06711 10.0878 1.91083 10.244C1.75455 10.4003 1.66675 10.6123 1.66675 10.8333V15.8333C1.66675 16.4963 1.93014 17.1322 2.39898 17.6011C2.86782 18.0699 3.50371 18.3333 4.16675 18.3333H15.8334C16.4965 18.3333 17.1323 18.0699 17.6012 17.6011C18.07 17.1322 18.3334 16.4963 18.3334 15.8333V10.8333C18.3334 10.6123 18.2456 10.4003 18.0893 10.244C17.9331 10.0878 17.7211 9.99995 17.5001 9.99995Z" fill="#E1E1E1"/>
</svg>
