<svg width="32" height="32" viewBox="0 0 32 32" fill="none" xmlns="http://www.w3.org/2000/svg">
<path d="M21.3333 28V25.3333C21.3333 23.9188 20.7714 22.5623 19.7712 21.5621C18.771 20.5619 17.4144 20 16 20H7.99996C6.58547 20 5.22892 20.5619 4.22872 21.5621C3.22853 22.5623 2.66663 23.9188 2.66663 25.3333V28M29.3333 27.9998V25.3332C29.3324 24.1515 28.9391 23.0035 28.2151 22.0696C27.4911 21.1357 26.4775 20.4686 25.3333 20.1732M21.3333 4.17318C22.4805 4.46691 23.4973 5.13411 24.2235 6.06959C24.9496 7.00507 25.3438 8.15562 25.3438 9.33984C25.3438 10.5241 24.9496 11.6746 24.2235 12.6101C23.4973 13.5456 22.4805 14.2128 21.3333 14.5065M17.3333 9.33333C17.3333 12.2789 14.9455 14.6667 12 14.6667C9.05444 14.6667 6.66663 12.2789 6.66663 9.33333C6.66663 6.38781 9.05444 4 12 4C14.9455 4 17.3333 6.38781 17.3333 9.33333Z" stroke="#E1E1E1" stroke-width="3" stroke-linecap="round" stroke-linejoin="round"/>
</svg>
