<svg width="30" height="28" viewBox="0 0 30 28" fill="none" xmlns="http://www.w3.org/2000/svg">
<path d="M20.3333 26V23.3333C20.3333 21.9188 19.7714 20.5623 18.7712 19.5621C17.771 18.5619 16.4144 18 15 18H6.99996C5.58547 18 4.22892 18.5619 3.22872 19.5621C2.22853 20.5623 1.66663 21.9188 1.66663 23.3333V26M28.3333 25.9998V23.3332C28.3324 22.1515 27.9391 21.0035 27.2151 20.0696C26.4911 19.1357 25.4775 18.4686 24.3333 18.1732M20.3333 2.17318C21.4805 2.46691 22.4973 3.13411 23.2235 4.06959C23.9496 5.00507 24.3438 6.15562 24.3438 7.33984C24.3438 8.52407 23.9496 9.67462 23.2235 10.6101C22.4973 11.5456 21.4805 12.2128 20.3333 12.5065M16.3333 7.33333C16.3333 10.2789 13.9455 12.6667 11 12.6667C8.05444 12.6667 5.66663 10.2789 5.66663 7.33333C5.66663 4.38781 8.05444 2 11 2C13.9455 2 16.3333 4.38781 16.3333 7.33333Z" stroke="#121212" stroke-width="3" stroke-linecap="round" stroke-linejoin="round"/>
</svg>
