<svg width="32" height="30" viewBox="0 0 32 30" fill="none" xmlns="http://www.w3.org/2000/svg">
<path d="M31.8333 10.25V7.08333H28.6666V3.91667C28.6666 3.07681 28.333 2.27136 27.7391 1.6775C27.1453 1.08363 26.3398 0.75 25.5 0.75H3.33329C2.49344 0.75 1.68799 1.08363 1.09412 1.6775C0.500256 2.27136 0.166626 3.07681 0.166626 3.91667V26.0833C0.166626 26.9232 0.500256 27.7286 1.09412 28.3225C1.68799 28.9164 2.49344 29.25 3.33329 29.25H25.5C26.3398 29.25 27.1453 28.9164 27.7391 28.3225C28.333 27.7286 28.6666 26.9232 28.6666 26.0833V22.9167H31.8333V19.75H28.6666V16.5833H31.8333V13.4167H28.6666V10.25H31.8333ZM25.5 26.0833H3.33329V3.91667H25.5V26.0833ZM6.49996 16.5833H14.4166V22.9167H6.49996V16.5833ZM16 7.08333H22.3333V11.8333H16V7.08333ZM6.49996 7.08333H14.4166V15H6.49996V7.08333ZM16 13.4167H22.3333V22.9167H16V13.4167Z" fill="#715AFF"/>
</svg>
