<svg width="33" height="32" viewBox="0 0 33 32" fill="none" xmlns="http://www.w3.org/2000/svg">
<path d="M9.79196 9.29196C9.88485 9.19883 9.9952 9.12494 10.1167 9.07453C10.2382 9.02412 10.3684 8.99817 10.5 8.99817C10.6315 8.99817 10.7617 9.02412 10.8832 9.07453C11.0047 9.12494 11.1151 9.19883 11.208 9.29196L16.5 14.586L21.792 9.29196C21.8849 9.19898 21.9953 9.12523 22.1168 9.07491C22.2383 9.02459 22.3685 8.99869 22.5 8.99869C22.6314 8.99869 22.7616 9.02459 22.8831 9.07491C23.0046 9.12523 23.115 9.19898 23.208 9.29196C23.3009 9.38493 23.3747 9.49531 23.425 9.61679C23.4753 9.73827 23.5012 9.86847 23.5012 9.99996C23.5012 10.1314 23.4753 10.2616 23.425 10.3831C23.3747 10.5046 23.3009 10.615 23.208 10.708L17.914 16L23.208 21.292C23.3009 21.3849 23.3747 21.4953 23.425 21.6168C23.4753 21.7383 23.5012 21.8685 23.5012 22C23.5012 22.1314 23.4753 22.2616 23.425 22.3831C23.3747 22.5046 23.3009 22.615 23.208 22.708C23.115 22.8009 23.0046 22.8747 22.8831 22.925C22.7616 22.9753 22.6314 23.0012 22.5 23.0012C22.3685 23.0012 22.2383 22.9753 22.1168 22.925C21.9953 22.8747 21.8849 22.8009 21.792 22.708L16.5 17.414L11.208 22.708C11.115 22.8009 11.0046 22.8747 10.8831 22.925C10.7616 22.9753 10.6314 23.0012 10.5 23.0012C10.3685 23.0012 10.2383 22.9753 10.1168 22.925C9.99531 22.8747 9.88493 22.8009 9.79196 22.708C9.69898 22.615 9.62523 22.5046 9.57491 22.3831C9.52459 22.2616 9.49869 22.1314 9.49869 22C9.49869 21.8685 9.52459 21.7383 9.57491 21.6168C9.62523 21.4953 9.69898 21.3849 9.79196 21.292L15.086 16L9.79196 10.708C9.69883 10.6151 9.62494 10.5047 9.57453 10.3832C9.52412 10.2617 9.49817 10.1315 9.49817 9.99996C9.49817 9.86842 9.52412 9.73818 9.57453 9.61669C9.62494 9.4952 9.69883 9.38485 9.79196 9.29196Z" fill="#121212"/>
</svg>
